<?xml version="1.0" encoding="UTF-8"?>
<svg version="1.1" viewBox="0 0 150.39 125.34" xml:space="preserve" xmlns="http://www.w3.org/2000/svg"> <style type="text/css"> .st0{fill:#243884;} .st1{fill-rule:evenodd;clip-rule:evenodd;fill:#243884;} .st2{fill-rule:evenodd;clip-rule:evenodd;fill:#7685BC;} .st3{fill:#F9B803;} .st4{fill:none;} </style> <title>Fichier 5</title><g clip-rule="evenodd" fill-rule="evenodd">  <path class="st1" d="m77.215 2.6211c-25.738 40.744-51.478 81.486-77.215 122.23 7.9477 0.10147 15.898 0.1258 23.844 0.27572 8.1212 0.38417 16.392-1.4711 23.385-5.6736 8.3503-4.9526 14.682-12.71 19.319-21.131 1.6834-3.2289 3.7619-6.2287 5.6426-9.3435 1.4813-2.3785 2.9626-4.757 4.4439-7.1355 4.6701 8.1978 9.2754 16.433 13.986 24.607 3.1546 5.2336 6.9267 10.379 12.299 13.512 5.7954 3.4278 12.627 4.3866 19.235 4.853 4.8 0.31795 9.6156 0.21156 14.423 0.32955 4.603 0.064 9.2059 0.1279 13.809 0.19201-6.5998-11.583-13.42-23.039-19.989-34.639-3.2534-5.4016-7.9558-10.104-13.857-12.516-4.6603-1.9874-9.7863-2.4702-14.805-2.4283-7.0399-0.10172-14.08-0.20344-21.12-0.30517 3.4083-5.5085 6.8802-10.983 10.249-16.513 3.1043-6.5102 5.6346-13.513 5.6466-20.812 0.0633-6.9133-2.0834-13.724-5.4999-19.685-4.0466-6.1463-8.0932-12.293-12.14-18.439-0.55208 0.8737-1.1042 1.7474-1.6562 2.6211zm34.361 37.809c-2.606 0.02566-5.0568 1.579-6.3249 3.835-3.6295 5.4901-7.3127 10.948-10.909 16.458-1.6808 3.0241-0.72727 7.1408 2.062 9.167 1.5674 1.2641 3.6363 1.6239 5.6006 1.499 7.0672-0.01712 14.136 0.03411 21.202-0.02539 3.5636-0.24117 6.6528-3.4344 6.6783-7.0245 0.12236-2.0047-0.81998-3.8594-1.9884-5.4227-3.508-5.2432-6.9528-10.531-10.5-15.746-1.3855-1.7517-3.5796-2.8099-5.8203-2.7402z" fill="#fff"/><path class="st1" d="m89.005 58.189-23.1 37.1c-6.3 12.2-18.8 29.2-42.8 27.8l-19.5-0.2 75.3-119.2 10.6 16.1c8.5 15.6 4.7 27.4-0.5 38.4z" fill="#243884"/><path class="st2" d="m76.405 77.389 15.2 26.8c7.9 13.5 14.2 18 33.8 18.8l21.5 0.3c-5.7-10-12.4-21.2-18-31.2-6.3-10.5-14.6-14.1-24.8-14.3z" fill="#7685bc"/></g><path class="st3" d="m122.61 69.389h-21.8c-2.9 0-5.3-2.4-5.3-5.3 0-1 0.3-2.1 0.9-2.9l10.9-16.4c1.6-2.4 4.9-3.1 7.3-1.5 0.6 0.4 1.1 0.9 1.5 1.5l10.9 16.4c1.6 2.4 1 5.7-1.5 7.3-0.8 0.6-1.9 0.9-2.9 0.9z" fill="#f9b803"/></svg>
